#!OML:ASF F:\VICON\USERDATA\INSTALL\rory3\rory3.ASF
:FULLY-SPECIFIED
:DEGREES
213
root 0.895589 16.4957 -8.07403 107.584 40.9783 -411.769
lowerback 5.5831 1.62072 -5.51521
upperback -5.91399 1.1611 -4.89317
thorax -9.46384 0.738865 -2.293
lowerneck -34.8957 -3.02815 -11.6775
upperneck 1.82061 -0.518757 14.8048
head 5.95335 1.18389 6.92382
rclavicle 1.90833e-014 -2.22639e-014
rhumerus 50.5525 -43.045 20.3798
rradius 26.9742
rwrist 13.9384
rhand -32.8903 -73.6488
rfingers 7.12502
rthumb -6.10827 103.541
lclavicle 1.90833e-014 -2.22639e-014
lhumerus 53.1286 25.2247 26.2999
lradius 36.0991
lwrist 24.0555
lhand -49.4807 111.996
lfingers 7.12502
lthumb -22.0906 -83.2383
rfemur -18.6973 -6.81296 24.972
rtibia 50.3064
rfoot -9.90012 -27.7695
rtoes -5.16389
lfemur -59.5636 44.5233 41.1888
ltibia 5.08889e-014
lfoot -1.49841 39.3701
ltoes 20.3026
214
root 0.828974 16.3685 -8.32341 106.874 39.5656 -411.354
lowerback 5.57744 1.56102 -5.36817
upperback -5.74122 1.09657 -5.01645
thorax -9.26283 0.688719 -2.48867
lowerneck -34.9645 -2.87197 -11.872
upperneck 2.77692 -0.487069 16.1983
head 6.32381 1.3367 7.4966
rclavicle 1.19271e-013 -5.40694e-014
rhumerus 47.2672 -42.0348 22.993
rradius 27.1803
rwrist 12.9879
rhand -30.1045 -74.2521
rfingers 7.12502
rthumb -3.41842 104.204
lclavicle 1.19271e-013 -5.40694e-014
lhumerus 52.274 24.4032 25.3726
lradius 35.7002
lwrist 25.1833
lhand -49.735 110.737
lfingers 7.12502
lthumb -22.3347 -82.0075
rfemur -18.6067 -6.34088 26.6263
rtibia 50.4496
rfoot -7.253 -28.0471
rtoes -10.1226
lfemur -59.8135 44.279 40.7949
ltibia 8.5875e-014
lfoot -4.93455 35.9158
ltoes 11.2845
215
root 0.765071 16.2398 -8.58279 106.249 38.0191 -410.924
lowerback 5.47009 1.48581 -5.29896
upperback -5.57625 1.0106 -5.15469
thorax -9.01374 0.633113 -2.65092
lowerneck -34.6159 -2.37182 -10.3569
upperneck 2.45196 -0.303388 14.678
head 6.09833 1.27847 6.69473
rclavicle 7.63333e-014 1.52667e-013
rhumerus 43.9537 -40.7372 25.652
rradius 27.42
rwrist 10.9902
rhand -29.6423 -74.5284
rfingers 7.12502
rthumb -2.97201 104.487
lclavicle 7.63333e-014 1.52667e-013
lhumerus 51.5292 23.742 24.9075
lradius 35.4205
lwrist 25.9122
lhand -49.9618 109.625
lfingers 7.12502
lthumb -22.5525 -80.9222
rfemur -18.6125 -5.37126 27.9249
rtibia 50.8709
rfoot -10.8072 -27.2376
rtoes -2.79788
lfemur -59.9315 43.5542 39.8895
ltibia 3.18055e-015
lfoot -4.2391 32.9945
ltoes -0.969821
216
root 0.704698 16.0959 -8.86588 105.956 36.6069 -410.321
lowerback 5.18544 1.3577 -5.04672
upperback -5.5005 0.883507 -5.26975
thorax -8.7547 0.548535 -2.88319
lowerneck -34.7664 -1.65094 -8.59974
upperneck 2.90109 0.0797284 12.9541
head 6.17347 1.32524 5.85473
rclavicle 2.8625e-014 1.17681e-013
rhumerus 40.3555 -38.959 28.4784
rradius 27.371
rwrist 9.51465
rhand -31.298 -74.4492
rfingers 7.12502
rthumb -4.57087 104.38
lclavicle 2.8625e-014 1.17681e-013
lhumerus 51.1425 23.2141 24.641
lradius 34.8527
lwrist 26.6964
lhand -50.2635 111.229
lfingers 7.12502
lthumb -22.842 -82.5619
rfemur -19.3153 -4.81114 29.5035
rtibia 51.6215
rfoot -8.89703 -27.7102
rtoes -2.77122
lfemur -66.3023 43.5631 36.8716
ltibia 8.77557
lfoot -8.4182 30.7138
ltoes -7.30091
217
root 0.651307 15.9513 -9.1532 105.66 35.1952 -409.783
lowerback 4.88982 1.18609 -4.55185
upperback -5.44699 0.699599 -5.57423
thorax -8.51178 0.414473 -3.4496
lowerneck -36.1671 -0.917371 -7.22074
upperneck 4.96613 0.516103 11.8607
head 6.97616 1.50425 5.38998
rclavicle 7.95139e-014 6.36111e-015
rhumerus 36.8577 -36.9659 30.785
rradius 27.338
rwrist 8.51379
rhand -31.3057 -73.5669
rfingers 7.12502
rthumb -4.57832 103.497
lclavicle 7.95139e-014 6.36111e-015
lhumerus 50.8329 22.6291 23.8178
lradius 34.1052
lwrist 27.6965
lhand -50.7447 114.225
lfingers 7.12502
lthumb -23.3037 -85.615
rfemur -20.1679 -4.34669 31.0797
rtibia 52.48
rfoot -5.27457 -28.2241
rtoes -14.0502
lfemur -71.907 43.7457 34.2074
ltibia 16.5708
lfoot -13.9073 28.5965
ltoes -3.37532
218
root 0.604489 15.816 -9.41593 104.966 33.6061 -409.436
lowerback 5.09669 1.07224 -4.38883
upperback -5.38239 0.528439 -5.77815
thorax -8.5653 0.311251 -3.74306
lowerneck -37.4338 -1.27814 -9.04913
upperneck 6.95589 0.43016 14.2685
head 7.87503 1.73993 6.65832
rclavicle 7.95139e-014 -8.90555e-014
rhumerus 33.3083 -34.4739 33.412
rradius 27.7307
rwrist 6.68001
rhand -31.207 -73.6038
rfingers 7.12502
rthumb -4.483 103.536
lclavicle 7.95139e-014 -8.90555e-014
lhumerus 50.269 22.1422 23.2655
lradius 33.5345
lwrist 28.6196
lhand -50.8873 113.984
lfingers 7.12502
lthumb -23.4405 -85.3915
rfemur -20.9986 -3.51671 32.2725
rtibia 53.6148
rfoot -8.40379 -27.6551
rtoes -3.94337
lfemur -76.121 43.6484 31.3937
ltibia 21.8939
lfoot -18.6484 26.5649
ltoes -0.99867
219
root 0.557433 15.6857 -9.66712 104.129 32.0328 -409.054
lowerback 5.56526 0.960514 -4.47537
upperback -5.28008 0.340027 -5.74692
thorax -8.73734 0.224201 -3.6473
lowerneck -37.1933 -0.726816 -7.88552
upperneck 6.87857 0.74807 13.356
head 7.76532 1.81151 6.16621
rclavicle -1.27222e-014 6.67916e-014
rhumerus 30.0981 -31.9911 35.8111
rradius 28.3586
rwrist 4.97506
rhand -32.2606 -74.6332
rfingers 7.12502
rthumb -5.50036 104.542
lclavicle -1.27222e-014 6.67916e-014
lhumerus 49.4752 21.8938 23.2106
lradius 33.1861
lwrist 29.3917
lhand -50.5691 109.393
lfingers 7.12502
lthumb -23.1352 -80.7619
rfemur -21.7154 -2.88274 33.5836
rtibia 54.6927
rfoot -9.88289 -27.3599
rtoes 4.61979
lfemur -78.5887 42.6325 30.4138
ltibia 26.177
lfoot -22.4378 26.9745
ltoes -1.68819
220
root 0.506107 15.5611 -9.91209 103.608 30.3129 -408.477
lowerback 5.7662 0.976314 -4.5853
upperback -5.19611 0.31489 -5.99668
thorax -8.76842 0.207841 -3.85453
lowerneck -36.8374 -0.509929 -6.91301
upperneck 6.65755 0.63603 12.888
head 7.65366 1.71589 5.79962
rclavicle -1.30403e-013 3.81667e-014
rhumerus 27.0035 -29.5089 37.746
rradius 28.4275
rwrist 3.6326
rhand -33.1421 -75.3937
rfingers 7.12502
rthumb -6.35138 105.278
lclavicle -1.30403e-013 3.81667e-014
lhumerus 49.5529 21.5256 23.7836
lradius 32.6936
lwrist 29.7688
lhand -50.5454 108.249
lfingers 7.12502
lthumb -23.1125 -79.6153
rfemur -22.7698 -2.38878 34.7941
rtibia 55.6694
rfoot -10.5813 -27.0085
rtoes -1.69231
lfemur -81.2106 41.4167 28.9916
ltibia 29.8673
lfoot -25.8543 28.2396
ltoes -1.01649
221
root 0.455183 15.445 -10.1515 103.437 28.8795 -407.591
lowerback 5.84198 0.463534 -4.50359
upperback -5.33197 -0.333316 -5.45726
thorax -8.97275 -0.09191 -3.23872
lowerneck -33.7309 -2.53969 -13.5107
upperneck 4.35595 -0.250228 20.4651
head 6.80011 1.7731 9.43108
rclavicle 9.54166e-014 -6.36111e-015
rhumerus 26.768 -28.5786 38.217
rradius 27.698
rwrist 2.59222
rhand -32.3861 -75.2291
rfingers 7.12502
rthumb -5.62153 105.135
lclavicle 9.54166e-014 -6.36111e-015
lhumerus 47.7203 21.8785 24.2439
lradius 32.1057
lwrist 29.5133
lhand -51.1367 111.314
lfingers 7.12502
lthumb -23.6797 -82.7526
rfemur -24.277 -2.0327 36.4006
rtibia 56.6593
rfoot -12.4299 -27.1107
rtoes 7.24453
lfemur -84.1917 40.1359 27.554
ltibia 33.3686
lfoot -29.582 29.3931
ltoes 2.76431
222
root 0.403282 15.346 -10.3839 103.218 27.3316 -406.653
lowerback 6.12349 0.315266 -4.79926
upperback -5.27308 -0.57216 -5.34583
thorax -9.07771 -0.18492 -2.9233
lowerneck -36.3604 -2.12304 -12.6602
upperneck 7.33528 0.0619865 18.9687
head 8.03771 1.93375 8.98698
rclavicle 3.81667e-014 4.77083e-014
rhumerus 25.1546 -28.2497 38.346
rradius 27.8704
rwrist 2.98232
rhand -30.158 -73.6743
rfingers 7.12502
rthumb -3.47001 103.626
lclavicle 3.81667e-014 4.77083e-014
lhumerus 47.7268 21.9585 25.0484
lradius 31.2849
lwrist 29.4353
lhand -51.4616 110.473
lfingers 7.12502
lthumb -23.9913 -81.9527
rfemur -25.654 -1.78386 38.0182
rtibia 57.2837
rfoot -11.3726 -27.7082
rtoes 5.24395
lfemur -87.4889 38.8999 25.6029
ltibia 36.8894
lfoot -32.5503 30.1212
ltoes 6.05123
223
root 0.356089 15.2705 -10.5921 102.753 25.5664 -405.721
lowerback 6.65271 -0.143796 -5.36946
upperback -4.97955 -1.28702 -5.47737
thorax -9.07724 -0.50323 -2.64125
lowerneck -38.3023 -0.678309 -9.45353
upperneck 9.02106 0.912415 16.3665
head 8.69288 2.24466 7.72119
rclavicle -2.22639e-014 0
rhumerus 22.8854 -27.5104 38.265
rradius 27.9549
rwrist 2.66047
rhand -30.1203 -73.2941
rfingers 7.12502
rthumb -3.43368 103.246
lclavicle -2.22639e-014 0
lhumerus 47.4831 22.3425 23.8848
lradius 30.3876
lwrist 30.4834
lhand -51.2392 104.332
lfingers 7.12502
lthumb -23.778 -75.7836
rfemur -26.9831 -1.5037 39.3707
rtibia 57.8471
rfoot -12.9637 -28.8871
rtoes -3.76083
lfemur -90.2532 37.4195 23.8388
ltibia 40.3375
lfoot -34.1362 30.7497
ltoes 6.49328
